<svg width="28" height="32" viewBox="0 0 28 32" fill="none" xmlns="http://www.w3.org/2000/svg">
<g id="Group">
<path id="Vector" d="M20.6076 11.4243C22.605 12.8573 25.052 13.7004 27.6949 13.7004V8.59657C27.1947 8.59668 26.6958 8.54434 26.2065 8.44029V12.4577C23.5638 12.4577 21.1172 11.6146 19.1192 10.1818V20.5971C19.1192 25.8074 14.9104 30.0309 9.71893 30.0309C7.78187 30.0309 5.98145 29.4432 4.48584 28.4353C6.19283 30.1869 8.57336 31.2735 11.207 31.2735C16.3988 31.2735 20.6078 27.05 20.6078 21.8395V11.4243H20.6076ZM22.4437 6.2752C21.4228 5.15598 20.7526 3.7096 20.6076 2.11056V1.4541H19.1971C19.5521 3.48648 20.7631 5.22282 22.4437 6.2752ZM7.76945 24.4371C7.19911 23.6866 6.8909 22.7685 6.89228 21.8246C6.89228 19.4416 8.81734 17.5094 11.1924 17.5094C11.635 17.5093 12.0749 17.5773 12.4967 17.7116V12.4937C12.0038 12.4259 11.5063 12.3972 11.009 12.4077V16.4691C10.5869 16.3347 10.1467 16.2665 9.70396 16.2669C7.32895 16.2669 5.40399 18.1989 5.40399 20.5822C5.40399 22.2674 6.36621 23.7263 7.76945 24.4371Z" fill="url(#paint0_linear_449_105)"/>
<path id="Vector_2" d="M19.1192 10.1816C21.1172 11.6145 23.5638 12.4576 26.2065 12.4576V8.44019C24.7314 8.12486 23.4255 7.35124 22.4436 6.2752C20.763 5.22271 19.5521 3.48637 19.1971 1.4541H15.4922V21.8393C15.4838 24.2158 13.562 26.14 11.1921 26.14C9.79557 26.14 8.55488 25.472 7.76912 24.4371C6.36598 23.7263 5.40377 22.2673 5.40377 20.5823C5.40377 18.1992 7.32872 16.267 9.70373 16.267C10.1588 16.267 10.5974 16.3382 11.0088 16.4692V12.4078C5.9085 12.5136 1.80664 16.6958 1.80664 21.8394C1.80664 24.407 2.8281 26.7347 4.48593 28.4354C5.98154 29.4432 7.78196 30.031 9.71902 30.031C14.9106 30.031 19.1193 25.8073 19.1193 20.5971V10.1816H19.1192Z" fill="url(#paint1_linear_449_105)"/>
<path id="Vector_3" d="M26.2065 8.44045V7.35417C24.8763 7.3562 23.5722 6.98234 22.4436 6.27536C23.4427 7.37304 24.7582 8.12992 26.2065 8.44045ZM19.1971 1.45437C19.1632 1.26014 19.1372 1.06463 19.1192 0.868372V0.211914H14.0037V20.5973C13.9955 22.9735 12.0739 24.8977 9.70374 24.8977C9.0079 24.8977 8.35093 24.732 7.76912 24.4374C8.55488 25.4722 9.79557 26.1402 11.1921 26.1402C13.5618 26.1402 15.4839 24.2161 15.4922 21.8396V1.45437H19.1971ZM11.009 12.4081V11.2517C10.5815 11.193 10.1506 11.1636 9.71913 11.1638C4.52713 11.1637 0.318359 15.3874 0.318359 20.5973C0.318359 23.8636 1.97248 26.7422 4.48604 28.4355C2.8282 26.7348 1.80675 24.407 1.80675 21.8395C1.80675 16.6961 5.9085 12.5138 11.009 12.4081Z" fill="url(#paint2_linear_449_105)"/>
</g>
<defs>
<linearGradient id="paint0_linear_449_105" x1="2.3544" y1="-3.03923" x2="41.5796" y2="36.615" gradientUnits="userSpaceOnUse">
<stop stop-color="#00E0FF"/>
<stop offset="0.597916" stop-color="#38E99F"/>
<stop offset="1" stop-color="#0FB1E4"/>
</linearGradient>
<linearGradient id="paint1_linear_449_105" x1="-0.434161" y1="-2.85201" x2="36.9585" y2="38.617" gradientUnits="userSpaceOnUse">
<stop stop-color="#00E0FF"/>
<stop offset="0.597916" stop-color="#38E99F"/>
<stop offset="1" stop-color="#0FB1E4"/>
</linearGradient>
<linearGradient id="paint2_linear_449_105" x1="-2.05912" y1="-4.04095" x2="34.5069" y2="39.5235" gradientUnits="userSpaceOnUse">
<stop stop-color="#00E0FF"/>
<stop offset="0.597916" stop-color="#38E99F"/>
<stop offset="1" stop-color="#0FB1E4"/>
</linearGradient>
</defs>
</svg>
