<svg width="32" height="32" viewBox="0 0 32 32" fill="none" xmlns="http://www.w3.org/2000/svg">
<g id="Pinterest" clip-path="url(#clip0_227_438)">
<path id="Vector" d="M15.7516 0.211914C7.16518 0.211914 0.227051 7.16281 0.227051 15.7364C0.227051 22.3168 4.31581 27.9389 10.0912 30.2004C9.95065 28.9738 9.83566 27.0828 10.1423 25.7411C10.4234 24.5273 11.9567 18.0236 11.9567 18.0236C11.9567 18.0236 11.4967 17.0909 11.4967 15.7237C11.4967 13.5643 12.7489 11.9543 14.3077 11.9543C15.6366 11.9543 16.2755 12.951 16.2755 14.1393C16.2755 15.4681 15.4321 17.4614 14.9849 19.3141C14.6144 20.8602 15.7644 22.1251 17.2849 22.1251C20.0448 22.1251 22.1658 19.2119 22.1658 15.0209C22.1658 11.3027 19.4954 8.70888 15.6749 8.70888C11.2539 8.70888 8.66012 12.0182 8.66012 15.4426C8.66012 16.7714 9.17121 18.2025 9.81009 18.9819C9.93788 19.1352 9.95065 19.2758 9.91232 19.4291C9.79733 19.9147 9.52898 20.9752 9.47789 21.1924C9.41399 21.4735 9.24787 21.5374 8.954 21.3968C7.03739 20.4768 5.83632 17.6403 5.83632 15.3659C5.83632 10.4722 9.38843 5.9745 16.0966 5.9745C21.4759 5.9745 25.6668 9.80772 25.6668 14.9442C25.6668 20.298 22.2936 24.604 17.6171 24.604C16.0454 24.604 14.5633 23.7862 14.065 22.8151C14.065 22.8151 13.2855 25.7795 13.0939 26.5078C12.7489 27.8622 11.8034 29.5488 11.1645 30.5838C12.6211 31.031 14.1544 31.2737 15.7644 31.2737C24.338 31.2737 31.2889 24.3229 31.2889 15.7492C31.2761 7.16281 24.3252 0.211914 15.7516 0.211914Z" fill="url(#paint0_linear_227_438)"/>
</g>
<defs>
<linearGradient id="paint0_linear_227_438" x1="-2.62557" y1="-4.46864" x2="36.8781" y2="46.8414" gradientUnits="userSpaceOnUse">
<stop stop-color="#00E0FF"/>
<stop offset="0.597916" stop-color="#38E99F"/>
<stop offset="1" stop-color="#0FB1E4"/>
</linearGradient>
<clipPath id="clip0_227_438">
<rect width="31.0618" height="31.0618" fill="white" transform="translate(0.227051 0.211914)"/>
</clipPath>
</defs>
</svg>
