<svg width="30" height="30" viewBox="0 0 30 30" fill="none" xmlns="http://www.w3.org/2000/svg">
<g id="mingcute:video-line" clip-path="url(#clip0_324_5878)">
<g id="Group">
<path id="Vector" fill-rule="evenodd" clip-rule="evenodd" d="M25 3.75C25.6307 3.7498 26.2382 3.98801 26.7007 4.41687C27.1632 4.84573 27.4464 5.43356 27.4938 6.0625L27.5 6.25V23.75C27.5002 24.3807 27.262 24.9882 26.8331 25.4507C26.4043 25.9132 25.8164 26.1964 25.1875 26.2438L25 26.25H5C4.36928 26.2502 3.76179 26.012 3.29932 25.5831C2.83684 25.1543 2.55355 24.5664 2.50625 23.9375L2.5 23.75V6.25C2.4998 5.61928 2.73801 5.01179 3.16687 4.54932C3.59573 4.08684 4.18356 3.80355 4.8125 3.75625L5 3.75H25ZM25 6.25H5V23.75H25V6.25ZM12.925 9.5475L13.5725 9.835L13.995 10.035L14.4788 10.2725L15.0162 10.545L15.6038 10.8575L16.2375 11.2075L16.57 11.3975L17.2175 11.7788L17.81 12.1438L18.3475 12.485L18.8225 12.8013L19.4225 13.2137L19.8775 13.5425L19.9963 13.63C20.1892 13.7735 20.3458 13.9602 20.4538 14.1751C20.5617 14.3899 20.6179 14.627 20.6179 14.8675C20.6179 15.108 20.5617 15.3451 20.4538 15.5599C20.3458 15.7748 20.1892 15.9615 19.9963 16.105L19.5925 16.3988L19.0425 16.7838L18.5975 17.0825L18.0912 17.4113L17.525 17.765L16.9012 18.14L16.2338 18.5262L15.5975 18.8787L15.0087 19.1912L14.4712 19.4662L13.9888 19.7013L13.2113 20.0612L12.9237 20.1863C12.703 20.2814 12.4631 20.3236 12.2232 20.3095C11.9833 20.2955 11.7499 20.2256 11.5418 20.1054C11.3337 19.9852 11.1566 19.818 11.0245 19.6172C10.8925 19.4164 10.8092 19.1875 10.7812 18.9488L10.7088 18.2425L10.6687 17.775L10.6163 16.945L10.5875 16.31L10.5688 15.6163C10.5665 15.4938 10.5649 15.3713 10.5638 15.2488L10.5613 14.8675C10.5613 14.6088 10.5638 14.3587 10.5688 14.1175L10.5875 13.4237L10.6163 12.79L10.65 12.2188L10.6875 11.7175L10.7812 10.7875C10.809 10.5485 10.8922 10.3193 11.0242 10.1182C11.1563 9.91711 11.3335 9.74965 11.5418 9.62919C11.75 9.50873 11.9835 9.43861 12.2237 9.42443C12.4639 9.41024 12.704 9.45239 12.925 9.5475ZM13.6888 12.6737L13.1438 12.4012L13.1075 13.01L13.08 13.6987L13.0638 14.4613L13.0613 14.8675L13.0638 15.2738L13.08 16.035L13.0925 16.3888L13.125 17.0387L13.1438 17.3325L13.6863 17.06L14.295 16.74L14.9637 16.3725L15.3188 16.17L16.0075 15.7625L16.625 15.38L17.17 15.03L17.415 14.8675L16.9062 14.53L16.3237 14.1625C15.9923 13.9573 15.6577 13.7573 15.32 13.5625L14.9662 13.3612L14.2987 12.9938L13.6888 12.6737Z" fill="white"/>
</g>
</g>
<defs>
<clipPath id="clip0_324_5878">
<rect width="30" height="30" fill="white"/>
</clipPath>
</defs>
</svg>
