<svg width="32" height="32" viewBox="0 0 32 32" fill="none" xmlns="http://www.w3.org/2000/svg">
<g clip-path="url(#clip0_227_441)">
<path d="M27.1346 6.92331C25.1728 6.02315 23.0691 5.35995 20.8695 4.98011C20.8294 4.97278 20.7894 4.9911 20.7688 5.02774C20.4982 5.50895 20.1985 6.13673 19.9887 6.63016C17.6229 6.27598 15.2692 6.27598 12.9519 6.63016C12.742 6.12576 12.4314 5.50895 12.1596 5.02774C12.139 4.99232 12.099 4.974 12.0589 4.98011C9.86055 5.35874 7.7568 6.02194 5.79378 6.92331C5.77679 6.93064 5.76222 6.94286 5.75255 6.95873C1.7622 12.9202 0.669072 18.7352 1.20532 24.4781C1.20775 24.5062 1.22352 24.5331 1.24536 24.5501C3.87808 26.4836 6.42833 27.6573 8.93121 28.4353C8.97127 28.4475 9.01371 28.4329 9.0392 28.3999C9.63126 27.5914 10.159 26.7389 10.6115 25.8423C10.6382 25.7898 10.6127 25.7275 10.5582 25.7068C9.72104 25.3892 8.92393 25.0021 8.15716 24.5624C8.09651 24.527 8.09166 24.4402 8.14745 24.3987C8.30881 24.2778 8.47021 24.152 8.62428 24.0249C8.65215 24.0017 8.691 23.9968 8.72377 24.0115C13.7611 26.3114 19.2146 26.3114 24.1925 24.0115C24.2253 23.9956 24.2641 24.0005 24.2932 24.0237C24.4473 24.1507 24.6087 24.2778 24.7713 24.3987C24.827 24.4402 24.8234 24.527 24.7628 24.5624C23.996 25.0106 23.1989 25.3892 22.3605 25.7056C22.306 25.7263 22.2817 25.7898 22.3084 25.8423C22.7706 26.7376 23.2984 27.5901 23.8795 28.3987C23.9038 28.4329 23.9474 28.4475 23.9875 28.4353C26.5025 27.6573 29.0527 26.4836 31.6855 24.5501C31.7085 24.5331 31.7231 24.5074 31.7255 24.4793C32.3673 17.8399 30.6506 12.0726 27.1746 6.95994C27.1661 6.94286 27.1516 6.93064 27.1346 6.92331ZM11.3638 20.9813C9.8472 20.9813 8.59757 19.5889 8.59757 17.879C8.59757 16.1691 9.82296 14.7767 11.3638 14.7767C12.9167 14.7767 14.1542 16.1813 14.1299 17.879C14.1299 19.5889 12.9046 20.9813 11.3638 20.9813ZM21.5913 20.9813C20.0748 20.9813 18.8252 19.5889 18.8252 17.879C18.8252 16.1691 20.0505 14.7767 21.5913 14.7767C23.1443 14.7767 24.3818 16.1813 24.3575 17.879C24.3575 19.5889 23.1443 20.9813 21.5913 20.9813Z" fill="url(#paint0_linear_227_441)"/>
</g>
<defs>
<linearGradient id="paint0_linear_227_441" x1="-1.7486" y1="1.44328" x2="25.1956" y2="47.3578" gradientUnits="userSpaceOnUse">
<stop stop-color="#00E0FF"/>
<stop offset="0.597916" stop-color="#38E99F"/>
<stop offset="1" stop-color="#0FB1E4"/>
</linearGradient>
<clipPath id="clip0_227_441">
<rect width="31.0618" height="31.0618" fill="white" transform="translate(0.937012 0.211914)"/>
</clipPath>
</defs>
</svg>
