<svg width="19" height="18" viewBox="0 0 19 18" fill="none" xmlns="http://www.w3.org/2000/svg">
<g clip-path="url(#clip0_278_25056)">
<path d="M8.78516 1.88086C7.80078 1.88086 6.875 2.06836 6.00781 2.44336C5.14062 2.80664 4.38477 3.31055 3.74023 3.95508C3.0957 4.59961 2.5918 5.35547 2.22852 6.22266C1.85352 7.08984 1.66602 8.01562 1.66602 9C1.66602 9.98438 1.85352 10.9102 2.22852 11.7773C2.5918 12.6445 3.0957 13.4004 3.74023 14.0449C4.38477 14.6895 5.14062 15.1934 6.00781 15.5566C6.875 15.9316 7.80078 16.1191 8.78516 16.1191C9.76953 16.1191 10.6953 15.9316 11.5625 15.5566C12.4297 15.1934 13.1855 14.6895 13.8301 14.0449C14.4746 13.4004 14.9785 12.6445 15.3418 11.7773C15.7168 10.9102 15.9043 9.98438 15.9043 9C15.9043 8.01562 15.7168 7.08984 15.3418 6.22266C14.9785 5.35547 14.4746 4.59961 13.8301 3.95508C13.1855 3.31055 12.4297 2.80664 11.5625 2.44336C10.6953 2.06836 9.76953 1.88086 8.78516 1.88086ZM0.910156 9C0.910156 7.91016 1.11523 6.89062 1.52539 5.94141C1.93555 4.98047 2.49805 4.14258 3.21289 3.42773C3.92773 2.71289 4.76562 2.15039 5.72656 1.74023C6.67578 1.33008 7.69531 1.125 8.78516 1.125C9.875 1.125 10.8945 1.33008 11.8438 1.74023C12.8047 2.15039 13.6426 2.71289 14.3574 3.42773C15.0723 4.14258 15.6348 4.98047 16.0449 5.94141C16.4551 6.89062 16.6602 7.91016 16.6602 9C16.6602 10.0898 16.4551 11.1094 16.0449 12.0586C15.6348 13.0195 15.0723 13.8574 14.3574 14.5723C13.6426 15.2871 12.8047 15.8496 11.8438 16.2598C10.8945 16.6699 9.875 16.875 8.78516 16.875C7.69531 16.875 6.67578 16.6699 5.72656 16.2598C4.76562 15.8496 3.92773 15.2871 3.21289 14.5723C2.49805 13.8574 1.93555 13.0195 1.52539 12.0586C1.11523 11.1094 0.910156 10.0898 0.910156 9ZM8.78516 4.13086C8.89062 4.13086 8.97852 4.16602 9.04883 4.23633C9.11914 4.30664 9.1543 4.39453 9.1543 4.5V8.63086H13.2852C13.3906 8.63086 13.4785 8.66602 13.5488 8.73633C13.6191 8.80664 13.6543 8.89453 13.6543 9C13.6543 9.10547 13.6191 9.19336 13.5488 9.26367C13.4785 9.33398 13.3906 9.36914 13.2852 9.36914H8.78516C8.67969 9.36914 8.5918 9.33398 8.52148 9.26367C8.45117 9.19336 8.41602 9.10547 8.41602 9V4.5C8.41602 4.39453 8.45117 4.30664 8.52148 4.23633C8.5918 4.16602 8.67969 4.13086 8.78516 4.13086Z" fill="white"/>
</g>
<defs>
<clipPath id="clip0_278_25056">
<rect width="18" height="18" fill="white" transform="matrix(1 0 0 -1 0.910156 18)"/>
</clipPath>
</defs>
</svg>
