<svg width="32" height="32" viewBox="0 0 32 32" fill="none" xmlns="http://www.w3.org/2000/svg">
<g id="ic:round-telegram">
<path id="Vector" d="M15.8347 2.58838C8.69093 2.58838 2.89307 8.38625 2.89307 15.53C2.89307 22.6738 8.69093 28.4717 15.8347 28.4717C22.9785 28.4717 28.7764 22.6738 28.7764 15.53C28.7764 8.38625 22.9785 2.58838 15.8347 2.58838ZM21.8397 11.3887C21.6455 13.4335 20.8043 18.4031 20.3773 20.6938C20.1961 21.6644 19.8337 21.9879 19.4972 22.0268C18.7466 22.0915 18.1772 21.535 17.4524 21.0561C16.3136 20.3055 15.6665 19.8396 14.5665 19.1149C13.2852 18.2737 14.1135 17.8078 14.8512 17.0572C15.0453 16.863 18.3584 13.8476 18.4231 13.5759C18.4321 13.5347 18.4309 13.492 18.4196 13.4514C18.4083 13.4108 18.3873 13.3735 18.3584 13.3429C18.2807 13.2782 18.1772 13.3041 18.0866 13.317C17.9701 13.3429 16.1583 14.5465 12.6252 16.9277C12.1075 17.2772 11.6416 17.4584 11.2275 17.4454C10.7616 17.4325 9.88157 17.1866 9.22154 16.9666C8.40622 16.7077 7.77207 16.5654 7.82384 16.1124C7.84972 15.8795 8.17327 15.6465 8.78153 15.4006C12.5605 13.757 15.0712 12.6699 16.3265 12.1523C19.9243 10.651 20.662 10.3922 21.1538 10.3922C21.2573 10.3922 21.5032 10.4181 21.6585 10.5475C21.7879 10.651 21.8267 10.7934 21.8397 10.8969C21.8267 10.9746 21.8526 11.2075 21.8397 11.3887Z" fill="url(#paint0_linear_227_450)"/>
</g>
<defs>
<linearGradient id="paint0_linear_227_450" x1="0.516027" y1="-1.31185" x2="33.4338" y2="41.444" gradientUnits="userSpaceOnUse">
<stop stop-color="#00FF85"/>
<stop offset="0.733333" stop-color="#9FEEFF"/>
<stop offset="1" stop-color="#19FFC8"/>
</linearGradient>
</defs>
</svg>
