<svg width="25" height="25" viewBox="0 0 25 25" fill="none" xmlns="http://www.w3.org/2000/svg">
<g clip-path="url(#clip0_278_25062)">
<path d="M6.58203 20C6.53516 20 6.46875 19.9961 6.38281 19.9883C6.29688 19.9805 6.23047 19.9531 6.18359 19.9062C6.08984 19.7969 6.04297 19.6758 6.04297 19.543C6.04297 19.4102 6.08984 19.2969 6.18359 19.2031L12.2773 13.1094H0.582031C0.425781 13.1094 0.304688 13.0625 0.21875 12.9688C0.132812 12.875 0.0898438 12.75 0.0898438 12.5938C0.0898438 12.4531 0.132812 12.3359 0.21875 12.2422C0.304688 12.1484 0.425781 12.1016 0.582031 12.1016H12.3711L6.27734 6.00781C6.18359 5.89844 6.13672 5.77734 6.13672 5.64453C6.13672 5.51172 6.18359 5.39844 6.27734 5.30469C6.38672 5.19531 6.50781 5.14062 6.64062 5.14062C6.77344 5.14062 6.88672 5.19531 6.98047 5.30469L13.9883 12.2891C13.9883 12.2891 14.0039 12.3125 14.0352 12.3594C14.0664 12.4062 14.082 12.4531 14.082 12.5C14.082 12.5469 14.082 12.5781 14.082 12.5938C14.082 12.6094 14.082 12.6484 14.082 12.7109C14.082 12.7578 14.082 12.7891 14.082 12.8047C14.082 12.8203 14.082 12.8516 14.082 12.8984C14.082 12.9453 14.0664 12.9766 14.0352 12.9922C14.0039 13.0078 13.9883 13.0469 13.9883 13.1094L6.98047 20.0938C6.93359 20.0469 6.86719 20.0195 6.78125 20.0117C6.69531 20.0039 6.62891 20 6.58203 20Z" fill="#00FF85"/>
</g>
<defs>
<clipPath id="clip0_278_25062">
<rect width="24" height="25" fill="white" transform="matrix(1 0 0 -1 0.0898438 25)"/>
</clipPath>
</defs>
</svg>
