<svg width="27" height="26" viewBox="0 0 27 26" fill="none" xmlns="http://www.w3.org/2000/svg">
<g id="bi:skype" clip-path="url(#clip0_227_454)">
<path id="Vector" d="M7.8951 0C9.3251 0 10.7112 0.401375 11.9056 1.14075C13.6895 0.950878 15.4933 1.1613 17.1856 1.7567C18.8779 2.35209 20.4161 3.31747 21.6881 4.5825C22.8032 5.69429 23.6882 7.01501 24.2924 8.46913C24.8967 9.92324 25.2083 11.4822 25.2095 13.0569C25.2095 13.6159 25.1705 14.1733 25.0925 14.7241C25.7298 15.8557 26.0656 17.1321 26.0675 18.4307C26.0675 19.4257 25.8708 20.4108 25.4887 21.3294C25.1067 22.248 24.5468 23.082 23.8412 23.7835C22.416 25.2047 20.4849 26.0019 18.4722 26C17.1072 26 15.778 25.6327 14.621 24.9535C12.8139 25.1692 10.9815 24.9733 9.2609 24.3804C7.54032 23.7874 5.97621 22.8128 4.68572 21.5296C3.57095 20.4179 2.68617 19.0974 2.08195 17.6436C1.47774 16.1898 1.16593 14.6312 1.16435 13.0569C1.16435 12.467 1.2066 11.8804 1.29435 11.3003C0.474525 9.86053 0.151271 8.19103 0.374468 6.54936C0.597665 4.90768 1.35491 3.38508 2.52935 2.2165C3.95406 0.797586 5.88435 0.000647032 7.8951 0ZM8.62147 11.3913C8.91397 11.8934 9.32022 12.3207 9.8061 12.6409C10.4497 13.0621 11.134 13.4176 11.8487 13.702C12.6482 14.0351 13.2673 14.3195 13.7093 14.5519C14.0815 14.7339 14.4195 14.9809 14.7087 15.2799C14.9281 15.5106 15.05 15.8177 15.05 16.1379C15.0591 16.3629 15.0145 16.5868 14.9198 16.7911C14.8252 16.9954 14.6832 17.1743 14.5056 17.3127C14.0327 17.6313 13.4656 17.7824 12.8968 17.7418C12.3122 17.7484 11.7325 17.6344 11.1938 17.407C10.9022 17.2774 10.6139 17.1403 10.3293 16.9959C10.0354 16.8397 9.70832 16.7561 9.37547 16.7521C9.0775 16.7397 8.78612 16.8421 8.56135 17.0381C8.45392 17.1402 8.36995 17.2645 8.31524 17.4022C8.26053 17.54 8.23638 17.688 8.24447 17.836C8.23765 18.1162 8.32205 18.3911 8.48497 18.6193C8.68149 18.8684 8.93584 19.0659 9.22597 19.1945C10.3587 19.6857 11.5866 19.9183 12.8205 19.8754C13.719 19.8933 14.6133 19.7473 15.4595 19.4447C16.1613 19.1957 16.7725 18.7424 17.2145 18.1431C17.6483 17.5094 17.8677 16.7537 17.8417 15.9868C17.8587 15.36 17.7017 14.7407 17.3883 14.1976C17.0702 13.6814 16.6418 13.2419 16.1339 12.9106C15.49 12.4953 14.807 12.1442 14.0945 11.8625C14.0184 11.8253 13.9396 11.7938 13.8588 11.7683C13.3029 11.5429 12.7539 11.3007 12.2127 11.0419C11.8842 10.8876 11.5868 10.6745 11.3352 10.413C11.1238 10.1905 11.0072 9.89444 11.0102 9.5875C10.9998 9.3536 11.0524 9.1212 11.1624 8.91454C11.2725 8.70788 11.436 8.53455 11.6358 8.41263C12.1104 8.12971 12.6568 7.9903 13.2088 8.01125C13.6313 8.00637 14.0539 8.06 14.4634 8.16725C14.9086 8.29562 15.3441 8.45487 15.7666 8.64337C15.9372 8.723 16.1241 8.76525 16.3126 8.76688C16.4501 8.77026 16.5868 8.7445 16.7137 8.69129C16.8406 8.63807 16.9548 8.55861 17.0487 8.45813C17.2492 8.23882 17.3544 7.94893 17.3412 7.65213C17.3461 7.36931 17.2479 7.09438 17.065 6.87862C16.8149 6.61641 16.5049 6.41898 16.1615 6.30337C15.7888 6.1664 15.4034 6.06679 15.011 6.006C14.4621 5.91616 13.9064 5.87376 13.3502 5.87925C12.5003 5.87385 11.6558 6.0157 10.8542 6.2985C10.1169 6.54717 9.45867 6.98675 8.94647 7.5725C8.45374 8.15593 8.19339 8.90053 8.21522 9.66387C8.19897 10.2651 8.33872 10.8599 8.62147 11.3913Z" fill="url(#paint0_linear_227_454)"/>
</g>
<defs>
<linearGradient id="paint0_linear_227_454" x1="-2.06022" y1="-3.91781" x2="31.0825" y2="38.7359" gradientUnits="userSpaceOnUse">
<stop stop-color="#00FF85"/>
<stop offset="0.733333" stop-color="#9FEEFF"/>
<stop offset="1" stop-color="#19FFC8"/>
</linearGradient>
<clipPath id="clip0_227_454">
<rect width="26" height="26" fill="white" transform="translate(0.304688)"/>
</clipPath>
</defs>
</svg>
