<svg width="12" height="12" viewBox="0 0 12 12" fill="none" xmlns="http://www.w3.org/2000/svg">
<g id="SVG" clip-path="url(#clip0_337_198)">
<g id="Clip path group">
<mask id="mask0_337_198" style="mask-type:luminance" maskUnits="userSpaceOnUse" x="0" y="0" width="12" height="12">
<g id="clip0_21_64">
<path id="Vector" d="M12 0H0V12H12V0Z" fill="white"/>
</g>
</mask>
<g mask="url(#mask0_337_198)">
<g id="Group">
<path id="Vector_2" d="M11.5204 11.2903C11.5157 11.0938 11.3551 10.9371 11.1586 10.9371H7.06953C7.27989 9.50734 6.65909 8.02759 5.25996 7.68026C5.46184 7.41334 5.26875 7.08621 4.98142 7.08621H4.47323C4.36151 7.08621 4.25625 7.13768 4.18772 7.22587L0.46875 12H11.1669C11.3701 12 11.5336 11.8324 11.5287 11.6291L11.5204 11.2903Z" fill="#EEF7FF"/>
<path id="Vector_3" d="M11.5296 11.6291C11.5345 11.8324 11.3711 12 11.1678 12H3.74605C3.53124 12 3.45929 11.7143 3.64772 11.6111C3.93412 11.4543 4.23637 11.2518 4.53021 10.9905C4.56852 10.9565 4.61768 10.9371 4.66894 10.9371H5.88805C5.96796 10.9371 6.03448 10.876 6.0425 10.7963C6.09539 10.2833 5.99763 9.79802 5.77938 9.4127C5.74829 9.35782 5.74294 9.29193 5.7665 9.23343C5.88029 8.95065 5.95845 8.6776 6.01162 8.42552C6.04622 8.26148 6.25082 8.20443 6.36539 8.32681C6.94648 8.94755 7.22142 9.91156 7.07046 10.9371H11.1595C11.3561 10.9371 11.5167 11.0938 11.5213 11.2903L11.5296 11.6291Z" fill="#CBE3FA"/>
<path id="Vector_4" d="M6.04226 10.7964C6.03407 10.876 5.96791 10.9371 5.88782 10.9371H3.06171C2.93284 10.9371 2.86012 10.7891 2.93889 10.6871L4.50952 8.653C4.54573 8.60608 4.60537 8.58439 4.66353 8.59574C5.66214 8.79082 6.14651 9.78408 6.04226 10.7964Z" fill="#01B243"/>
<path id="Vector_5" d="M6.04376 10.7963C6.03574 10.876 5.96923 10.9371 5.88931 10.9371H4.96591C4.83039 10.9371 4.76017 10.7757 4.85235 10.6764C5.14503 10.361 5.39827 10.0009 5.59878 9.60583C5.65865 9.4879 5.82867 9.49336 5.88034 9.61512C6.02747 9.96193 6.08775 10.3695 6.04376 10.7963Z" fill="#01B243"/>
<path id="Vector_6" d="M1.14116 0H0.882543C0.653922 0 0.46875 0.185172 0.46875 0.413793V11.5862C0.46875 11.8148 0.653922 12 0.882543 12H1.14116C1.36978 12 1.55496 11.8148 1.55496 11.5862V0.413793C1.55496 0.185172 1.36978 0 1.14116 0Z" fill="#CBE3FA"/>
<path id="Vector_7" d="M1.55496 0.413793C1.55496 0.470922 1.50864 0.517241 1.45151 0.517241H1.39978C1.17124 0.517241 0.985991 0.702491 0.985991 0.931035C0.985991 0.986121 0.948517 1.03409 0.894983 1.0471C0.758147 1.08034 0.616293 1.11947 0.46875 1.16534V0.413793C0.46875 0.18525 0.654 0 0.882543 0H1.14116C1.36968 0 1.55496 0.18525 1.55496 0.413793Z" fill="#EEF7FF"/>
<path id="Vector_8" d="M0.988027 5.65933V11.5884C0.988027 11.9167 0.493492 11.9417 0.471716 11.6141C0.470294 11.5926 0.470785 12.0284 0.470785 5.53398C0.558328 5.50677 0.64388 5.48197 0.72757 5.45939C0.858949 5.42391 0.988027 5.52325 0.988027 5.65933Z" fill="#EEF7FF"/>
<path id="Vector_9" d="M6.5303 1.24579C4.15156 1.9653 3.42334 0.248028 0.46875 1.16536V5.53398C3.53216 4.58484 4.19946 6.45953 6.79073 5.52829C6.9547 5.46958 7.06358 5.31337 7.06358 5.13932V1.642C7.06358 1.3645 6.79591 1.16562 6.5303 1.24579Z" fill="#01B243"/>
<path id="Vector_10" d="M7.06526 1.642V1.90998C7.06526 2.11119 6.92889 2.28294 6.73573 2.33921C4.62975 2.95276 3.8813 1.77503 1.78831 2.01638C1.66508 2.03057 1.55664 1.93512 1.55664 1.81108V0.925359C3.65431 0.667514 4.47311 1.86855 6.53198 1.24579C6.79759 1.16562 7.06526 1.3645 7.06526 1.642Z" fill="#18CB5B"/>
<path id="Vector_11" d="M1.55496 0.925354V5.29423C1.22728 5.33432 0.868578 5.4101 0.46875 5.53397V1.16535C0.868578 1.04122 1.22728 0.96544 1.55496 0.925354Z" fill="#07933B"/>
<path id="Vector_12" d="M0.985991 1.29057V5.23159C0.985991 5.32604 0.92219 5.40875 0.830638 5.43192C0.713793 5.46148 0.593302 5.49526 0.46875 5.534V1.16535C0.556241 1.13814 0.641741 1.11332 0.725379 1.09069C0.85681 1.0551 0.985991 1.15444 0.985991 1.29057Z" fill="#01B243"/>
</g>
</g>
</g>
</g>
<defs>
<clipPath id="clip0_337_198">
<rect width="12" height="12" fill="white"/>
</clipPath>
</defs>
</svg>
