<svg width="32" height="23" viewBox="0 0 32 23" fill="none" xmlns="http://www.w3.org/2000/svg">
<g id="Group">
<path id="Vector" d="M31.069 4.27406C30.7108 2.94358 29.6618 1.89454 28.3313 1.53634C25.9006 0.871094 16.1778 0.871094 16.1778 0.871094C16.1778 0.871094 6.45505 0.871094 4.02436 1.51075C2.71946 1.86896 1.64484 2.94358 1.28663 4.27406C0.646973 6.70476 0.646973 11.7452 0.646973 11.7452C0.646973 11.7452 0.646973 16.8113 1.28663 19.2164C1.64484 20.5469 2.69387 21.5959 4.02436 21.9542C6.48064 22.6194 16.1778 22.6194 16.1778 22.6194C16.1778 22.6194 25.9006 22.6194 28.3313 21.9797C29.6618 21.6215 30.7108 20.5725 31.069 19.242C31.7087 16.8113 31.7087 11.7708 31.7087 11.7708C31.7087 11.7708 31.7343 6.70476 31.069 4.27406Z" fill="url(#paint0_linear_449_71)"/>
<path id="Vector_2" d="M13.082 16.4018L21.1673 11.7451L13.082 7.08838V16.4018Z" fill="#00031A"/>
</g>
<defs>
<linearGradient id="paint0_linear_449_71" x1="-2.20564" y1="-2.40605" x2="21.6942" y2="41.9306" gradientUnits="userSpaceOnUse">
<stop stop-color="#00E0FF"/>
<stop offset="0.597916" stop-color="#38E99F"/>
<stop offset="1" stop-color="#0FB1E4"/>
</linearGradient>
</defs>
</svg>
