<svg width="15" height="15" viewBox="0 0 15 15" fill="none" xmlns="http://www.w3.org/2000/svg">
<g id="Icon" clip-path="url(#clip0_383_386)">
<path id="Vector" d="M14.2676 13.667L10.6934 9.94629C11.1523 9.39941 11.5039 8.79395 11.748 8.12988C11.9922 7.46582 12.1143 6.77246 12.1143 6.0498C12.1143 5.21973 11.9531 4.43848 11.6309 3.70605C11.3184 2.96387 10.8862 2.31934 10.3345 1.77246C9.78272 1.22559 9.14063 0.795898 8.4082 0.483398C7.67578 0.161133 6.88965 0 6.04981 0C5.21973 0 4.43848 0.161133 3.70605 0.483398C2.96387 0.795898 2.31934 1.22559 1.77246 1.77246C1.22559 2.31934 0.795898 2.96387 0.483398 3.70605C0.161133 4.43848 0 5.21973 0 6.0498C0 6.88965 0.161133 7.67578 0.483398 8.4082C0.795898 9.14062 1.22559 9.78271 1.77246 10.3345C2.31934 10.8862 2.96387 11.3184 3.70605 11.6309C4.43848 11.9531 5.21973 12.1143 6.04981 12.1143C6.68457 12.1143 7.29492 12.0215 7.88086 11.8359C8.4668 11.6504 9.01367 11.377 9.52149 11.0156L13.125 14.751C13.2031 14.8291 13.291 14.8901 13.3887 14.9341C13.4863 14.978 13.5889 15 13.6963 15C13.7939 15 13.8916 14.9805 13.9893 14.9414C14.0869 14.9023 14.1699 14.8486 14.2383 14.7803C14.3945 14.624 14.4751 14.4385 14.48 14.2236C14.4849 14.0088 14.4141 13.8232 14.2676 13.667ZM6.04981 1.58203C6.67481 1.58203 7.25586 1.69922 7.79297 1.93359C8.33984 2.16797 8.81592 2.48779 9.22119 2.89307C9.62647 3.29834 9.94629 3.77441 10.1807 4.32129C10.415 4.8584 10.5322 5.43457 10.5322 6.0498C10.5322 6.6748 10.415 7.25586 10.1807 7.79297C9.94629 8.33984 9.62647 8.81592 9.22119 9.22119C8.81592 9.62646 8.33984 9.94629 7.79297 10.1807C7.25586 10.415 6.67481 10.5322 6.04981 10.5322C5.43457 10.5322 4.8584 10.415 4.32129 10.1807C3.77441 9.94629 3.29834 9.62646 2.89307 9.22119C2.48779 8.81592 2.16797 8.33984 1.93359 7.79297C1.69922 7.25586 1.58203 6.6748 1.58203 6.0498C1.58203 5.43457 1.69922 4.8584 1.93359 4.32129C2.16797 3.77441 2.48779 3.29834 2.89307 2.89307C3.29834 2.48779 3.77441 2.16797 4.32129 1.93359C4.8584 1.69922 5.43457 1.58203 6.04981 1.58203Z" fill="url(#paint0_radial_383_386)"/>
</g>
<defs>
<radialGradient id="paint0_radial_383_386" cx="0" cy="0" r="1" gradientUnits="userSpaceOnUse" gradientTransform="translate(3.86184 7.49675) scale(2.8719 17.1609)">
<stop stop-color="#132B47"/>
<stop offset="0.513" stop-color="#0D2139"/>
<stop offset="1" stop-color="#061428"/>
</radialGradient>
<clipPath id="clip0_383_386">
<rect width="15" height="15" fill="white" transform="matrix(1 0 0 -1 0 15)"/>
</clipPath>
</defs>
</svg>
