<svg width="32" height="32" viewBox="0 0 32 32" fill="none" xmlns="http://www.w3.org/2000/svg">
<g id="mdi:twitter">
<path id="Vector" d="M29.3718 7.76509C28.3753 8.21805 27.3011 8.51571 26.1882 8.65807C27.327 7.97216 28.2071 6.88506 28.6212 5.57795C27.547 6.22503 26.3564 6.67799 25.1011 6.93682C24.0787 5.82384 22.6422 5.17676 21.0115 5.17676C17.9702 5.17676 15.4854 7.66156 15.4854 10.7287C15.4854 11.1687 15.5372 11.5958 15.6278 11.997C11.0205 11.7641 6.91803 9.55104 4.18733 6.19915C3.70849 7.01447 3.43672 7.97216 3.43672 8.98161C3.43672 10.9099 4.40734 12.6182 5.90858 13.5888C4.98972 13.5888 4.13557 13.33 3.38495 12.9418V12.9806C3.38495 15.6724 5.30032 17.9243 7.83688 18.429C7.0225 18.6519 6.16753 18.6829 5.33914 18.5196C5.69065 19.6229 6.37905 20.5882 7.30759 21.28C8.23613 21.9717 9.35811 22.3551 10.5158 22.3762C8.55337 23.9298 6.12081 24.7696 3.6179 24.7575C3.17788 24.7575 2.73787 24.7316 2.29785 24.6798C4.75677 26.2587 7.68158 27.1776 10.8135 27.1776C21.0115 27.1776 26.6152 18.7137 26.6152 11.3758C26.6152 11.1299 26.6152 10.897 26.6023 10.6511C27.6894 9.87458 28.6212 8.89102 29.3718 7.76509Z" fill="url(#paint0_linear_227_458)"/>
</g>
<defs>
<linearGradient id="paint0_linear_227_458" x1="-0.188532" y1="1.86156" x2="25.8385" y2="43.4625" gradientUnits="userSpaceOnUse">
<stop stop-color="#00FF85"/>
<stop offset="0.733333" stop-color="#9FEEFF"/>
<stop offset="1" stop-color="#19FFC8"/>
</linearGradient>
</defs>
</svg>
