<svg width="32" height="32" viewBox="0 0 32 32" fill="none" xmlns="http://www.w3.org/2000/svg">
<g id="mdi:linkedin">
<path id="Vector" d="M24.8937 3.88232C25.5801 3.88232 26.2385 4.15502 26.7239 4.64043C27.2093 5.12584 27.482 5.78419 27.482 6.47066V24.589C27.482 25.2755 27.2093 25.9338 26.7239 26.4192C26.2385 26.9046 25.5801 27.1773 24.8937 27.1773H6.77535C6.08888 27.1773 5.43052 26.9046 4.94512 26.4192C4.45971 25.9338 4.18701 25.2755 4.18701 24.589V6.47066C4.18701 5.78419 4.45971 5.12584 4.94512 4.64043C5.43052 4.15502 6.08888 3.88232 6.77535 3.88232H24.8937ZM24.2466 23.9419V17.0828C24.2466 15.9639 23.8021 14.8908 23.0109 14.0996C22.2197 13.3083 21.1466 12.8638 20.0276 12.8638C18.9276 12.8638 17.6463 13.5368 17.0251 14.5463V13.1097H13.4144V23.9419H17.0251V17.5617C17.0251 16.5652 17.8275 15.7498 18.824 15.7498C19.3046 15.7498 19.7654 15.9407 20.1052 16.2805C20.445 16.6203 20.6359 17.0811 20.6359 17.5617V23.9419H24.2466ZM9.20838 11.0779C9.78501 11.0779 10.338 10.8488 10.7458 10.4411C11.1535 10.0333 11.3826 9.48032 11.3826 8.90369C11.3826 7.70012 10.412 6.71655 9.20838 6.71655C8.62831 6.71655 8.072 6.94698 7.66184 7.35715C7.25167 7.76732 7.02124 8.32363 7.02124 8.90369C7.02124 10.1073 8.0048 11.0779 9.20838 11.0779ZM11.0073 23.9419V13.1097H7.42243V23.9419H11.0073Z" fill="url(#paint0_linear_227_462)"/>
</g>
<defs>
<linearGradient id="paint0_linear_227_462" x1="2.04768" y1="0.372118" x2="31.6737" y2="38.8524" gradientUnits="userSpaceOnUse">
<stop stop-color="#00FF85"/>
<stop offset="0.733333" stop-color="#9FEEFF"/>
<stop offset="1" stop-color="#19FFC8"/>
</linearGradient>
</defs>
</svg>
