<svg width="35" height="36" viewBox="0 0 35 36" fill="none" xmlns="http://www.w3.org/2000/svg">
<rect width="35" height="36" fill="#3B3B3B" fill-opacity="0.81"/>
<g id="Trang Ch&#225;&#187;&#167;">
<path d="M-2500 -74C-2500 -101.614 -2477.61 -124 -2450 -124H129C156.614 -124 179 -101.614 179 -74V5543C179 5570.61 156.614 5593 129 5593H-2450C-2477.61 5593 -2500 5570.61 -2500 5543V-74Z" fill="url(#paint0_linear_0_1)"/>
<path d="M-2450 -123H129V-125H-2450V-123ZM178 -74V5543H180V-74H178ZM129 5592H-2450V5594H129V5592ZM-2499 5543V-74H-2501V5543H-2499ZM-2450 5592C-2477.06 5592 -2499 5570.06 -2499 5543H-2501C-2501 5571.17 -2478.17 5594 -2450 5594V5592ZM178 5543C178 5570.06 156.062 5592 129 5592V5594C157.167 5594 180 5571.17 180 5543H178ZM129 -123C156.062 -123 178 -101.062 178 -74H180C180 -102.167 157.167 -125 129 -125V-123ZM-2450 -125C-2478.17 -125 -2501 -102.167 -2501 -74H-2499C-2499 -101.062 -2477.06 -123 -2450 -123V-125Z" fill="black" fill-opacity="0.1"/>
<g id="Trang Ch&#225;&#187;&#167; - Mobile">
<rect width="430" height="5447" transform="translate(-380 -20)" fill="#141516"/>
<g id="Frame 1261152960">
<g id="Frame 1261152734">
<mask id="path-3-inside-1_0_1" fill="white">
<path d="M-380 -20H50V55.4531H-380V-20Z"/>
</mask>
<path d="M-380 -20H50V55.4531H-380V-20Z" fill="url(#paint1_linear_0_1)"/>
<path d="M50 54.4531H-380V56.4531H50V54.4531Z" fill="url(#paint2_linear_0_1)" mask="url(#path-3-inside-1_0_1)"/>
<g id="solar:hamburger-menu-bold">
<path id="Vector" fill-rule="evenodd" clip-rule="evenodd" d="M5.0515 30.1734C7.18942 32.3099 10.6253 32.3099 17.4998 32.3099C24.3744 32.3099 27.8117 32.3099 29.9467 30.1734C32.0832 28.0399 32.0832 24.6011 32.0832 17.7266C32.0832 10.852 32.0832 7.41468 29.9467 5.27822C27.8132 3.14322 24.3744 3.14322 17.4998 3.14322C10.6253 3.14322 7.18796 3.14322 5.0515 5.27822C2.9165 7.41614 2.9165 10.852 2.9165 17.7266C2.9165 24.6011 2.9165 28.0384 5.0515 30.1734ZM27.3436 23.5599C27.3436 23.85 27.2284 24.1282 27.0232 24.3333C26.8181 24.5384 26.5399 24.6536 26.2498 24.6536H8.74984C8.45976 24.6536 8.18156 24.5384 7.97644 24.3333C7.77132 24.1282 7.65609 23.85 7.65609 23.5599C7.65609 23.2698 7.77132 22.9916 7.97644 22.7865C8.18156 22.5814 8.45976 22.4661 8.74984 22.4661H26.2498C26.5399 22.4661 26.8181 22.5814 27.0232 22.7865C27.2284 22.9916 27.3436 23.2698 27.3436 23.5599ZM26.2498 18.8203C26.5399 18.8203 26.8181 18.7051 27.0232 18.5C27.2284 18.2948 27.3436 18.0166 27.3436 17.7266C27.3436 17.4365 27.2284 17.1583 27.0232 16.9532C26.8181 16.748 26.5399 16.6328 26.2498 16.6328H8.74984C8.45976 16.6328 8.18156 16.748 7.97644 16.9532C7.77132 17.1583 7.65609 17.4365 7.65609 17.7266C7.65609 18.0166 7.77132 18.2948 7.97644 18.5C8.18156 18.7051 8.45976 18.8203 8.74984 18.8203H26.2498ZM27.3436 11.8932C27.3436 12.1833 27.2284 12.4615 27.0232 12.6666C26.8181 12.8717 26.5399 12.987 26.2498 12.987H8.74984C8.45976 12.987 8.18156 12.8717 7.97644 12.6666C7.77132 12.4615 7.65609 12.1833 7.65609 11.8932C7.65609 11.6031 7.77132 11.3249 7.97644 11.1198C8.18156 10.9147 8.45976 10.7995 8.74984 10.7995H26.2498C26.5399 10.7995 26.8181 10.9147 27.0232 11.1198C27.2284 11.3249 27.3436 11.6031 27.3436 11.8932Z" fill="white"/>
</g>
</g>
</g>
</g>
</g>
<defs>
<linearGradient id="paint0_linear_0_1" x1="-1160.5" y1="-124" x2="-1160.5" y2="5593" gradientUnits="userSpaceOnUse">
<stop stop-color="#E8E8E8"/>
<stop offset="1" stop-color="#E8E8E8" stop-opacity="0"/>
</linearGradient>
<linearGradient id="paint1_linear_0_1" x1="185.987" y1="17.7255" x2="-484.274" y2="18.4037" gradientUnits="userSpaceOnUse">
<stop stop-color="white" stop-opacity="0"/>
<stop offset="0.148452" stop-color="#161D66" stop-opacity="0"/>
<stop offset="0.550028" stop-color="#28B69D"/>
<stop offset="0.926369" stop-color="#161D66" stop-opacity="0"/>
<stop offset="1" stop-color="white" stop-opacity="0"/>
</linearGradient>
<linearGradient id="paint2_linear_0_1" x1="-376.821" y1="55.4534" x2="50" y2="55.4534" gradientUnits="userSpaceOnUse">
<stop stop-color="white" stop-opacity="0.18"/>
<stop offset="0.5" stop-color="#1D9AD1"/>
<stop offset="1" stop-color="white" stop-opacity="0.18"/>
</linearGradient>
</defs>
</svg>
